<svg xmlns="http://www.w3.org/2000/svg" width="1280" height="720" viewBox="0 0 1280 720" font-family="'Segoe UI', system-ui, -apple-system, Helvetica, Arial, sans-serif"><defs><linearGradient id="bg" x1="0" y1="0" x2="0" y2="1"><stop offset="0" stop-color="#0a0e16"/><stop offset="1" stop-color="#0d1117"/></linearGradient><linearGradient id="accent" x1="0" y1="0" x2="1" y2="0"><stop offset="0" stop-color="#2dd4bf"/><stop offset="0.5" stop-color="#4493f8"/><stop offset="1" stop-color="#2dd4bf"/></linearGradient><pattern id="grid" width="32" height="32" patternUnits="userSpaceOnUse"><path d="M 32 0 L 0 0 0 32" fill="none" stroke="#161d27" stroke-width="1"/></pattern><filter id="soft" x="-20%" y="-20%" width="140%" height="140%"><feDropShadow dx="0" dy="4" stdDeviation="8" flood-color="#000000" flood-opacity="0.45"/></filter><filter id="glow" x="-60%" y="-60%" width="220%" height="220%"><feDropShadow dx="0" dy="0" stdDeviation="6" flood-color="#2dd4bf" flood-opacity="0.5"/></filter></defs><rect x="0" y="0" width="1280" height="720" fill="url(#bg)"/><rect x="0" y="0" width="1280" height="720" fill="url(#grid)" opacity="0.5"/><rect x="0" y="0" width="1280" height="4" fill="url(#accent)"/><text x="1252" y="698" font-size="12.5" fill="#69788b" font-family="'SF Mono','JetBrains Mono','Fira Code',Menlo,Consolas,'Liberation Mono',monospace" font-weight="400" text-anchor="end">github.com/TAIPANBOX/tokenfuse</text><text x="40" y="56" font-size="28" fill="#e6edf3" font-family="'Segoe UI', system-ui, -apple-system, Helvetica, Arial, sans-serif" font-weight="700" text-anchor="start">What's inside</text><text x="40" y="84" font-size="15" fill="#9aa7b8" font-family="'Segoe UI', system-ui, -apple-system, Helvetica, Arial, sans-serif" font-weight="400" text-anchor="start">One shared Rust core, enabled as capability packs, config-gated: turn on what you need.</text><line x1="40" y1="100" x2="1240" y2="100" stroke="#222b38" stroke-width="1"/><rect x="40" y="148" width="280" height="226" rx="12" ry="12" fill="#1b2331" stroke="#222b38" stroke-width="1" filter="url(#soft)"/><rect x="40" y="148" width="6" height="226" rx="3" ry="3" fill="#e3b341" stroke="#283341" stroke-width="1"/><text x="62" y="178" font-size="17" fill="#e6edf3" font-family="'Segoe UI', system-ui, -apple-system, Helvetica, Arial, sans-serif" font-weight="700" text-anchor="start">FinOps</text><line x1="62" y1="192" x2="306" y2="192" stroke="#222b38" stroke-width="1"/><circle cx="65" cy="214" r="2.6" fill="#e3b341"/><text x="78" y="218" font-size="12.5" fill="#9aa7b8" font-family="'Segoe UI', system-ui, -apple-system, Helvetica, Arial, sans-serif" font-weight="500" text-anchor="start">Per-run budgets, hierarchical roll-up</text><circle cx="65" cy="239" r="2.6" fill="#e3b341"/><text x="78" y="243" font-size="12.5" fill="#9aa7b8" font-family="'Segoe UI', system-ui, -apple-system, Helvetica, Arial, sans-serif" font-weight="500" text-anchor="start">Breaker: hard-stop kill-switch</text><circle cx="65" cy="264" r="2.6" fill="#e3b341"/><text x="78" y="268" font-size="12.5" fill="#9aa7b8" font-family="'Segoe UI', system-ui, -apple-system, Helvetica, Arial, sans-serif" font-weight="500" text-anchor="start">Model router: cheapest model in tier</text><circle cx="65" cy="289" r="2.6" fill="#e3b341"/><text x="78" y="293" font-size="12.5" fill="#9aa7b8" font-family="'Segoe UI', system-ui, -apple-system, Helvetica, Arial, sans-serif" font-weight="500" text-anchor="start">Backtest a policy on past traffic</text><rect x="344" y="148" width="280" height="226" rx="12" ry="12" fill="#1b2331" stroke="#222b38" stroke-width="1" filter="url(#soft)"/><rect x="344" y="148" width="6" height="226" rx="3" ry="3" fill="#4493f8" stroke="#283341" stroke-width="1"/><text x="366" y="178" font-size="17" fill="#e6edf3" font-family="'Segoe UI', system-ui, -apple-system, Helvetica, Arial, sans-serif" font-weight="700" text-anchor="start">Cache</text><line x1="366" y1="192" x2="610" y2="192" stroke="#222b38" stroke-width="1"/><circle cx="369" cy="214" r="2.6" fill="#4493f8"/><text x="382" y="218" font-size="12.5" fill="#9aa7b8" font-family="'Segoe UI', system-ui, -apple-system, Helvetica, Arial, sans-serif" font-weight="500" text-anchor="start">Semantic cache: repeats served for $0</text><circle cx="369" cy="239" r="2.6" fill="#4493f8"/><text x="382" y="243" font-size="12.5" fill="#9aa7b8" font-family="'Segoe UI', system-ui, -apple-system, Helvetica, Arial, sans-serif" font-weight="500" text-anchor="start">Router savings booked separately</text><circle cx="369" cy="264" r="2.6" fill="#4493f8"/><text x="382" y="268" font-size="12.5" fill="#9aa7b8" font-family="'Segoe UI', system-ui, -apple-system, Helvetica, Arial, sans-serif" font-weight="500" text-anchor="start">Cuts spend before budget even matters</text><rect x="648" y="148" width="280" height="226" rx="12" ry="12" fill="#1b2331" stroke="#222b38" stroke-width="1" filter="url(#soft)"/><rect x="648" y="148" width="6" height="226" rx="3" ry="3" fill="#ff6b63" stroke="#283341" stroke-width="1"/><text x="670" y="178" font-size="17" fill="#e6edf3" font-family="'Segoe UI', system-ui, -apple-system, Helvetica, Arial, sans-serif" font-weight="700" text-anchor="start">Security</text><line x1="670" y1="192" x2="914" y2="192" stroke="#222b38" stroke-width="1"/><circle cx="673" cy="214" r="2.6" fill="#ff6b63"/><text x="686" y="218" font-size="12.5" fill="#9aa7b8" font-family="'Segoe UI', system-ui, -apple-system, Helvetica, Arial, sans-serif" font-weight="500" text-anchor="start">Agent firewall: taint tracking</text><circle cx="673" cy="239" r="2.6" fill="#ff6b63"/><text x="686" y="243" font-size="12.5" fill="#9aa7b8" font-family="'Segoe UI', system-ui, -apple-system, Helvetica, Arial, sans-serif" font-weight="500" text-anchor="start">DLP: redact secrets leaving in prompts</text><circle cx="673" cy="264" r="2.6" fill="#ff6b63"/><text x="686" y="268" font-size="12.5" fill="#9aa7b8" font-family="'Segoe UI', system-ui, -apple-system, Helvetica, Arial, sans-serif" font-weight="500" text-anchor="start">MCP scan: poisoning + rug-pull, CI-gated</text><circle cx="673" cy="289" r="2.6" fill="#ff6b63"/><text x="686" y="293" font-size="12.5" fill="#9aa7b8" font-family="'Segoe UI', system-ui, -apple-system, Helvetica, Arial, sans-serif" font-weight="500" text-anchor="start">MCP credential broker: no secret in-model</text><rect x="952" y="148" width="280" height="226" rx="12" ry="12" fill="#1b2331" stroke="#222b38" stroke-width="1" filter="url(#soft)"/><rect x="952" y="148" width="6" height="226" rx="3" ry="3" fill="#2dd4bf" stroke="#283341" stroke-width="1"/><text x="974" y="178" font-size="17" fill="#e6edf3" font-family="'Segoe UI', system-ui, -apple-system, Helvetica, Arial, sans-serif" font-weight="700" text-anchor="start">Data</text><line x1="974" y1="192" x2="1218" y2="192" stroke="#222b38" stroke-width="1"/><circle cx="977" cy="214" r="2.6" fill="#2dd4bf"/><text x="990" y="218" font-size="12.5" fill="#9aa7b8" font-family="'Segoe UI', system-ui, -apple-system, Helvetica, Arial, sans-serif" font-weight="500" text-anchor="start">Zero-DB Parquet analytics + tokenfuse sql</text><circle cx="977" cy="239" r="2.6" fill="#2dd4bf"/><text x="990" y="243" font-size="12.5" fill="#9aa7b8" font-family="'Segoe UI', system-ui, -apple-system, Helvetica, Arial, sans-serif" font-weight="500" text-anchor="start">FOCUS export: FinOps-format CSV</text><circle cx="977" cy="264" r="2.6" fill="#2dd4bf"/><text x="990" y="268" font-size="12.5" fill="#9aa7b8" font-family="'Segoe UI', system-ui, -apple-system, Helvetica, Arial, sans-serif" font-weight="500" text-anchor="start">Agent-event NDJSON export (opt-in)</text><circle cx="977" cy="289" r="2.6" fill="#2dd4bf"/><text x="990" y="293" font-size="12.5" fill="#9aa7b8" font-family="'Segoe UI', system-ui, -apple-system, Helvetica, Arial, sans-serif" font-weight="500" text-anchor="start">eBPF Radar: shadow-agent discovery</text><rect x="40" y="402" width="1200" height="74" rx="14" ry="14" fill="#1a212c" stroke="#2dd4bf" stroke-width="1.6" filter="url(#glow)"/><text x="640.0" y="432" font-size="18" fill="#2dd4bf" font-family="'SF Mono','JetBrains Mono','Fira Code',Menlo,Consolas,'Liberation Mono',monospace" font-weight="700" text-anchor="middle">TokenFuse core</text><text x="640.0" y="452" font-size="12.5" fill="#e6edf3" font-family="'Segoe UI', system-ui, -apple-system, Helvetica, Arial, sans-serif" font-weight="600" text-anchor="middle">single Rust binary: interception · ledger + traces · policy engine · taint domain</text><line x1="180.0" y1="374" x2="180.0" y2="393" stroke="#69788b" stroke-width="1.8" opacity="0.6"/><path d="M 175.0 393 L 180.0 402 L 185.0 393 Z" fill="#69788b" opacity="0.6"/><line x1="484.0" y1="374" x2="484.0" y2="393" stroke="#69788b" stroke-width="1.8" opacity="0.6"/><path d="M 479.0 393 L 484.0 402 L 489.0 393 Z" fill="#69788b" opacity="0.6"/><line x1="788.0" y1="374" x2="788.0" y2="393" stroke="#69788b" stroke-width="1.8" opacity="0.6"/><path d="M 783.0 393 L 788.0 402 L 793.0 393 Z" fill="#69788b" opacity="0.6"/><line x1="1092.0" y1="374" x2="1092.0" y2="393" stroke="#69788b" stroke-width="1.8" opacity="0.6"/><path d="M 1087.0 393 L 1092.0 402 L 1097.0 393 Z" fill="#69788b" opacity="0.6"/><rect x="240.0" y="520" width="380" height="150" rx="12" ry="12" fill="#1b2331" stroke="#222b38" stroke-width="1" filter="url(#soft)"/><rect x="240.0" y="520" width="6" height="150" rx="3" ry="3" fill="#4493f8" stroke="#283341" stroke-width="1"/><text x="262.0" y="550" font-size="16" fill="#e6edf3" font-family="'Segoe UI', system-ui, -apple-system, Helvetica, Arial, sans-serif" font-weight="700" text-anchor="start">Cloud (free, self-host)</text><line x1="262.0" y1="564" x2="606.0" y2="564" stroke="#222b38" stroke-width="1"/><circle cx="265.0" cy="586" r="2.6" fill="#4493f8"/><text x="278.0" y="590" font-size="12.5" fill="#9aa7b8" font-family="'Segoe UI', system-ui, -apple-system, Helvetica, Arial, sans-serif" font-weight="500" text-anchor="start">Rust control plane + Next.js dashboard</text><circle cx="265.0" cy="611" r="2.6" fill="#4493f8"/><text x="278.0" y="615" font-size="12.5" fill="#9aa7b8" font-family="'Segoe UI', system-ui, -apple-system, Helvetica, Arial, sans-serif" font-weight="500" text-anchor="start">Fleet-wide spend + kill-switch</text><circle cx="265.0" cy="636" r="2.6" fill="#4493f8"/><text x="278.0" y="640" font-size="12.5" fill="#9aa7b8" font-family="'Segoe UI', system-ui, -apple-system, Helvetica, Arial, sans-serif" font-weight="500" text-anchor="start">Incidents: budget, loop, spike, fan-out</text><circle cx="265.0" cy="661" r="2.6" fill="#4493f8"/><text x="278.0" y="665" font-size="12.5" fill="#9aa7b8" font-family="'Segoe UI', system-ui, -apple-system, Helvetica, Arial, sans-serif" font-weight="500" text-anchor="start">Replay + evidence, central budgets</text><rect x="660.0" y="520" width="380" height="150" rx="12" ry="12" fill="#1b2331" stroke="#222b38" stroke-width="1" filter="url(#soft)"/><rect x="660.0" y="520" width="6" height="150" rx="3" ry="3" fill="#3fb950" stroke="#283341" stroke-width="1"/><text x="682.0" y="550" font-size="16" fill="#e6edf3" font-family="'Segoe UI', system-ui, -apple-system, Helvetica, Arial, sans-serif" font-weight="700" text-anchor="start">HA raft cluster</text><line x1="682.0" y1="564" x2="1026.0" y2="564" stroke="#222b38" stroke-width="1"/><circle cx="685.0" cy="586" r="2.6" fill="#3fb950"/><text x="698.0" y="590" font-size="12.5" fill="#9aa7b8" font-family="'Segoe UI', system-ui, -apple-system, Helvetica, Arial, sans-serif" font-weight="500" text-anchor="start">Replicated budget ledger (raft)</text><circle cx="685.0" cy="611" r="2.6" fill="#3fb950"/><text x="698.0" y="615" font-size="12.5" fill="#9aa7b8" font-family="'Segoe UI', system-ui, -apple-system, Helvetica, Arial, sans-serif" font-weight="500" text-anchor="start">Durable storage (redb) survives restart</text><circle cx="685.0" cy="636" r="2.6" fill="#3fb950"/><text x="698.0" y="640" font-size="12.5" fill="#9aa7b8" font-family="'Segoe UI', system-ui, -apple-system, Helvetica, Arial, sans-serif" font-weight="500" text-anchor="start">No cross-node double-spend</text><circle cx="685.0" cy="661" r="2.6" fill="#3fb950"/><text x="698.0" y="665" font-size="12.5" fill="#9aa7b8" font-family="'Segoe UI', system-ui, -apple-system, Helvetica, Arial, sans-serif" font-weight="500" text-anchor="start">Runtime membership, token auth + TLS</text><line x1="430.0" y1="476" x2="430.0" y2="511" stroke="#69788b" stroke-width="1.8" opacity="0.6" stroke-dasharray="5,4"/><path d="M 425.0 511 L 430.0 520 L 435.0 511 Z" fill="#69788b" opacity="0.6"/><line x1="850.0" y1="476" x2="850.0" y2="511" stroke="#69788b" stroke-width="1.8" opacity="0.6" stroke-dasharray="5,4"/><path d="M 845.0 511 L 850.0 520 L 855.0 511 Z" fill="#69788b" opacity="0.6"/><text x="640" y="492" font-size="10.5" fill="#69788b" font-family="'SF Mono','JetBrains Mono','Fira Code',Menlo,Consolas,'Liberation Mono',monospace" font-weight="400" text-anchor="middle">optional, config-gated</text></svg>